<svg id="visual" viewBox="0 0 960 540" width="960" height="540" xmlns="http://www.w3.org/2000/svg" xmlns:xlink="http://www.w3.org/1999/xlink" version="1.1"><g stroke-width="1" stroke-linejoin="bevel"><path d="M465 284L506 269L460 262Z" fill="#007f5f" stroke="#007f5f"></path><path d="M506 269L506 236L460 262Z" fill="#064838" stroke="#064838"></path><path d="M433 201L423 264L460 262Z" fill="#017457" stroke="#017457"></path><path d="M460 262L423 264L465 284Z" fill="#001812" stroke="#001812"></path><path d="M423 264L460 335L465 284Z" fill="#073429" stroke="#073429"></path><path d="M465 284L533 322L506 269Z" fill="#045d48" stroke="#045d48"></path><path d="M460 335L533 322L465 284Z" fill="#072a21" stroke="#072a21"></path><path d="M506 269L605 197L506 236Z" fill="#073429" stroke="#073429"></path><path d="M506 236L433 201L460 262Z" fill="#06201a" stroke="#06201a"></path><path d="M553 166L518 191L605 197Z" fill="#02684f" stroke="#02684f"></path><path d="M506 236L518 191L433 201Z" fill="#001812" stroke="#001812"></path><path d="M433 201L391 264L423 264Z" fill="#072a21" stroke="#072a21"></path><path d="M423 264L393 370L460 335Z" fill="#055340" stroke="#055340"></path><path d="M393 370L456 381L460 335Z" fill="#064838" stroke="#064838"></path><path d="M460 335L456 381L533 322Z" fill="#007f5f" stroke="#007f5f"></path><path d="M518 191L482 152L433 201Z" fill="#072a21" stroke="#072a21"></path><path d="M482 152L428 160L433 201Z" fill="#045d48" stroke="#045d48"></path><path d="M433 201L351 215L391 264Z" fill="#073429" stroke="#073429"></path><path d="M605 197L518 191L506 236Z" fill="#045d48" stroke="#045d48"></path><path d="M518 191L553 166L482 152Z" fill="#02684f" stroke="#02684f"></path><path d="M391 264L393 370L423 264Z" fill="#06201a" stroke="#06201a"></path><path d="M635 302L605 197L506 269Z" fill="#02684f" stroke="#02684f"></path><path d="M389 158L351 215L433 201Z" fill="#073e30" stroke="#073e30"></path><path d="M391 264L341 321L393 370Z" fill="#007f5f" stroke="#007f5f"></path><path d="M428 160L389 158L433 201Z" fill="#017457" stroke="#017457"></path><path d="M401 73L389 158L428 160Z" fill="#073e30" stroke="#073e30"></path><path d="M644 394L621 327L533 322Z" fill="#072a21" stroke="#072a21"></path><path d="M533 322L635 302L506 269Z" fill="#073e30" stroke="#073e30"></path><path d="M292 260L341 321L391 264Z" fill="#073429" stroke="#073429"></path><path d="M488 455L505 419L456 381Z" fill="#073429" stroke="#073429"></path><path d="M456 381L505 419L533 322Z" fill="#02684f" stroke="#02684f"></path><path d="M621 327L628 318L533 322Z" fill="#073429" stroke="#073429"></path><path d="M628 318L635 302L533 322Z" fill="#055340" stroke="#055340"></path><path d="M363 385L378 387L393 370Z" fill="#073e30" stroke="#073e30"></path><path d="M393 370L378 387L456 381Z" fill="#045d48" stroke="#045d48"></path><path d="M635 302L631 204L605 197Z" fill="#073e30" stroke="#073e30"></path><path d="M589 129L562 121L553 166Z" fill="#064838" stroke="#064838"></path><path d="M334 351L363 385L393 370Z" fill="#072a21" stroke="#072a21"></path><path d="M393 477L488 455L456 381Z" fill="#045d48" stroke="#045d48"></path><path d="M589 129L553 166L605 197Z" fill="#064838" stroke="#064838"></path><path d="M553 166L562 121L482 152Z" fill="#073429" stroke="#073429"></path><path d="M482 152L458 88L428 160Z" fill="#073e30" stroke="#073e30"></path><path d="M341 321L334 351L393 370Z" fill="#045d48" stroke="#045d48"></path><path d="M272 279L334 351L341 321Z" fill="#045d48" stroke="#045d48"></path><path d="M389 158L328 196L351 215Z" fill="#073e30" stroke="#073e30"></path><path d="M351 215L292 260L391 264Z" fill="#073429" stroke="#073429"></path><path d="M562 121L498 95L482 152Z" fill="#001812" stroke="#001812"></path><path d="M635 302L649 217L631 204Z" fill="#06201a" stroke="#06201a"></path><path d="M658 167L589 129L605 197Z" fill="#06201a" stroke="#06201a"></path><path d="M658 167L605 197L631 204Z" fill="#001812" stroke="#001812"></path><path d="M562 121L561 65L498 95Z" fill="#072a21" stroke="#072a21"></path><path d="M498 95L458 88L482 152Z" fill="#06201a" stroke="#06201a"></path><path d="M389 158L308 173L328 196Z" fill="#06201a" stroke="#06201a"></path><path d="M393 477L456 381L378 387Z" fill="#007f5f" stroke="#007f5f"></path><path d="M505 419L644 394L533 322Z" fill="#073429" stroke="#073429"></path><path d="M328 196L292 260L351 215Z" fill="#073429" stroke="#073429"></path><path d="M488 455L510 463L505 419Z" fill="#007f5f" stroke="#007f5f"></path><path d="M318 88L308 173L389 158Z" fill="#06201a" stroke="#06201a"></path><path d="M328 196L308 173L292 260Z" fill="#02684f" stroke="#02684f"></path><path d="M649 217L658 167L631 204Z" fill="#02684f" stroke="#02684f"></path><path d="M712 196L658 167L649 217Z" fill="#064838" stroke="#064838"></path><path d="M637 429L644 394L505 419Z" fill="#072a21" stroke="#072a21"></path><path d="M621 327L690 327L628 318Z" fill="#001812" stroke="#001812"></path><path d="M628 318L690 327L635 302Z" fill="#064838" stroke="#064838"></path><path d="M635 302L690 327L649 217Z" fill="#073e30" stroke="#073e30"></path><path d="M226 230L272 279L292 260Z" fill="#073e30" stroke="#073e30"></path><path d="M292 260L272 279L341 321Z" fill="#055340" stroke="#055340"></path><path d="M303 500L393 477L363 385Z" fill="#06201a" stroke="#06201a"></path><path d="M454 0L401 73L458 88Z" fill="#055340" stroke="#055340"></path><path d="M458 88L401 73L428 160Z" fill="#073429" stroke="#073429"></path><path d="M644 394L690 327L621 327Z" fill="#045d48" stroke="#045d48"></path><path d="M618 63L561 65L589 129Z" fill="#02684f" stroke="#02684f"></path><path d="M589 129L561 65L562 121Z" fill="#064838" stroke="#064838"></path><path d="M498 95L468 0L458 88Z" fill="#06201a" stroke="#06201a"></path><path d="M510 463L637 429L505 419Z" fill="#045d48" stroke="#045d48"></path><path d="M644 394L661 422L690 327Z" fill="#055340" stroke="#055340"></path><path d="M393 500L393 477L303 500Z" fill="#072a21" stroke="#072a21"></path><path d="M363 385L393 477L378 387Z" fill="#064838" stroke="#064838"></path><path d="M488 455L463 540L510 463Z" fill="#073e30" stroke="#073e30"></path><path d="M637 429L661 422L644 394Z" fill="#001812" stroke="#001812"></path><path d="M690 327L712 196L649 217Z" fill="#017457" stroke="#017457"></path><path d="M692 106L618 63L589 129Z" fill="#064838" stroke="#064838"></path><path d="M401 73L318 88L389 158Z" fill="#064838" stroke="#064838"></path><path d="M308 173L254 176L292 260Z" fill="#073e30" stroke="#073e30"></path><path d="M692 106L589 129L658 167Z" fill="#072a21" stroke="#072a21"></path><path d="M249 155L254 176L308 173Z" fill="#001812" stroke="#001812"></path><path d="M261 401L363 385L334 351Z" fill="#055340" stroke="#055340"></path><path d="M393 477L432 540L488 455Z" fill="#073e30" stroke="#073e30"></path><path d="M599 512L648 463L637 429Z" fill="#001812" stroke="#001812"></path><path d="M599 512L637 429L510 463Z" fill="#001812" stroke="#001812"></path><path d="M637 429L648 463L661 422Z" fill="#007f5f" stroke="#007f5f"></path><path d="M256 396L334 351L272 279Z" fill="#045d48" stroke="#045d48"></path><path d="M256 396L261 401L334 351Z" fill="#02684f" stroke="#02684f"></path><path d="M254 176L226 230L292 260Z" fill="#001812" stroke="#001812"></path><path d="M282 83L249 155L308 173Z" fill="#02684f" stroke="#02684f"></path><path d="M254 176L169 170L226 230Z" fill="#017457" stroke="#017457"></path><path d="M232 384L256 396L272 279Z" fill="#073429" stroke="#073429"></path><path d="M700 107L692 106L658 167Z" fill="#073429" stroke="#073429"></path><path d="M532 0L498 95L561 65Z" fill="#072a21" stroke="#072a21"></path><path d="M532 0L468 0L498 95Z" fill="#017457" stroke="#017457"></path><path d="M401 73L399 0L318 88Z" fill="#072a21" stroke="#072a21"></path><path d="M468 0L454 0L458 88Z" fill="#055340" stroke="#055340"></path><path d="M579 540L599 512L510 463Z" fill="#072a21" stroke="#072a21"></path><path d="M712 196L700 107L658 167Z" fill="#007f5f" stroke="#007f5f"></path><path d="M692 106L687 81L618 63Z" fill="#073429" stroke="#073429"></path><path d="M432 540L463 540L488 455Z" fill="#072a21" stroke="#072a21"></path><path d="M642 0L561 65L618 63Z" fill="#02684f" stroke="#02684f"></path><path d="M642 0L532 0L561 65Z" fill="#073e30" stroke="#073e30"></path><path d="M284 0L282 83L318 88Z" fill="#073e30" stroke="#073e30"></path><path d="M318 88L282 83L308 173Z" fill="#007f5f" stroke="#007f5f"></path><path d="M758 215L741 180L712 196Z" fill="#073e30" stroke="#073e30"></path><path d="M712 196L741 180L700 107Z" fill="#072a21" stroke="#072a21"></path><path d="M755 308L712 196L690 327Z" fill="#045d48" stroke="#045d48"></path><path d="M751 328L690 327L750 359Z" fill="#001812" stroke="#001812"></path><path d="M463 540L519 540L510 463Z" fill="#045d48" stroke="#045d48"></path><path d="M750 359L690 327L661 422Z" fill="#02684f" stroke="#02684f"></path><path d="M751 328L755 308L690 327Z" fill="#001812" stroke="#001812"></path><path d="M203 322L232 384L272 279Z" fill="#072a21" stroke="#072a21"></path><path d="M256 396L243 448L261 401Z" fill="#02684f" stroke="#02684f"></path><path d="M387 540L432 540L393 500Z" fill="#017457" stroke="#017457"></path><path d="M387 540L393 500L335 540Z" fill="#072a21" stroke="#072a21"></path><path d="M393 500L432 540L393 477Z" fill="#001812" stroke="#001812"></path><path d="M681 0L687 81L754 18Z" fill="#045d48" stroke="#045d48"></path><path d="M700 107L687 81L692 106Z" fill="#02684f" stroke="#02684f"></path><path d="M755 308L758 215L712 196Z" fill="#045d48" stroke="#045d48"></path><path d="M454 0L399 0L401 73Z" fill="#001812" stroke="#001812"></path><path d="M751 328L816 334L755 308Z" fill="#073e30" stroke="#073e30"></path><path d="M760 396L750 359L661 422Z" fill="#001812" stroke="#001812"></path><path d="M226 230L203 322L272 279Z" fill="#064838" stroke="#064838"></path><path d="M303 500L363 385L261 401Z" fill="#064838" stroke="#064838"></path><path d="M519 540L579 540L510 463Z" fill="#064838" stroke="#064838"></path><path d="M599 512L679 540L648 463Z" fill="#001812" stroke="#001812"></path><path d="M742 496L760 396L661 422Z" fill="#001812" stroke="#001812"></path><path d="M203 322L220 388L232 384Z" fill="#072a21" stroke="#072a21"></path><path d="M232 384L220 388L256 396Z" fill="#073e30" stroke="#073e30"></path><path d="M243 448L303 500L261 401Z" fill="#064838" stroke="#064838"></path><path d="M206 424L243 448L256 396Z" fill="#073e30" stroke="#073e30"></path><path d="M742 496L661 422L648 463Z" fill="#072a21" stroke="#072a21"></path><path d="M750 359L816 334L751 328Z" fill="#06201a" stroke="#06201a"></path><path d="M836 270L798 200L758 215Z" fill="#017457" stroke="#017457"></path><path d="M226 230L174 269L203 322Z" fill="#073e30" stroke="#073e30"></path><path d="M156 432L206 424L220 388Z" fill="#017457" stroke="#017457"></path><path d="M220 388L206 424L256 396Z" fill="#064838" stroke="#064838"></path><path d="M157 267L174 269L169 170Z" fill="#055340" stroke="#055340"></path><path d="M174 269L226 230L169 170Z" fill="#072a21" stroke="#072a21"></path><path d="M303 500L335 540L393 500Z" fill="#064838" stroke="#064838"></path><path d="M238 540L335 540L303 500Z" fill="#001812" stroke="#001812"></path><path d="M644 0L642 0L618 63Z" fill="#073e30" stroke="#073e30"></path><path d="M687 81L644 0L618 63Z" fill="#001812" stroke="#001812"></path><path d="M681 0L644 0L687 81Z" fill="#073e30" stroke="#073e30"></path><path d="M156 432L220 388L203 322Z" fill="#073e30" stroke="#073e30"></path><path d="M243 448L238 540L303 500Z" fill="#072a21" stroke="#072a21"></path><path d="M758 215L798 200L741 180Z" fill="#06201a" stroke="#06201a"></path><path d="M741 180L805 137L700 107Z" fill="#007f5f" stroke="#007f5f"></path><path d="M836 270L758 215L755 308Z" fill="#017457" stroke="#017457"></path><path d="M206 424L222 459L243 448Z" fill="#055340" stroke="#055340"></path><path d="M169 170L254 176L249 155Z" fill="#001812" stroke="#001812"></path><path d="M174 269L157 267L203 322Z" fill="#055340" stroke="#055340"></path><path d="M216 76L169 170L249 155Z" fill="#017457" stroke="#017457"></path><path d="M207 46L216 76L282 83Z" fill="#072a21" stroke="#072a21"></path><path d="M282 83L216 76L249 155Z" fill="#02684f" stroke="#02684f"></path><path d="M754 18L687 81L791 58Z" fill="#06201a" stroke="#06201a"></path><path d="M399 0L284 0L318 88Z" fill="#007f5f" stroke="#007f5f"></path><path d="M579 540L679 540L599 512Z" fill="#073e30" stroke="#073e30"></path><path d="M852 362L816 334L835 414Z" fill="#02684f" stroke="#02684f"></path><path d="M760 396L816 334L750 359Z" fill="#073e30" stroke="#073e30"></path><path d="M679 540L742 496L648 463Z" fill="#073429" stroke="#073429"></path><path d="M835 96L805 137L859 144Z" fill="#045d48" stroke="#045d48"></path><path d="M798 200L805 137L741 180Z" fill="#02684f" stroke="#02684f"></path><path d="M816 334L836 270L755 308Z" fill="#045d48" stroke="#045d48"></path><path d="M284 0L252 0L282 83Z" fill="#007f5f" stroke="#007f5f"></path><path d="M216 76L144 107L169 170Z" fill="#045d48" stroke="#045d48"></path><path d="M252 0L207 46L282 83Z" fill="#055340" stroke="#055340"></path><path d="M85 322L156 432L203 322Z" fill="#02684f" stroke="#02684f"></path><path d="M206 424L151 441L222 459Z" fill="#055340" stroke="#055340"></path><path d="M222 459L238 540L243 448Z" fill="#06201a" stroke="#06201a"></path><path d="M220 540L238 540L222 459Z" fill="#007f5f" stroke="#007f5f"></path><path d="M791 58L687 81L700 107Z" fill="#001812" stroke="#001812"></path><path d="M679 540L738 540L742 496Z" fill="#007f5f" stroke="#007f5f"></path><path d="M742 496L804 459L760 396Z" fill="#073429" stroke="#073429"></path><path d="M835 96L791 58L805 137Z" fill="#045d48" stroke="#045d48"></path><path d="M805 137L791 58L700 107Z" fill="#064838" stroke="#064838"></path><path d="M829 490L804 459L820 515Z" fill="#007f5f" stroke="#007f5f"></path><path d="M816 334L885 340L836 270Z" fill="#007f5f" stroke="#007f5f"></path><path d="M29 446L151 441L156 432Z" fill="#017457" stroke="#017457"></path><path d="M156 432L151 441L206 424Z" fill="#017457" stroke="#017457"></path><path d="M115 111L144 107L110 88Z" fill="#02684f" stroke="#02684f"></path><path d="M207 46L144 107L216 76Z" fill="#06201a" stroke="#06201a"></path><path d="M169 170L103 254L157 267Z" fill="#02684f" stroke="#02684f"></path><path d="M157 267L101 301L203 322Z" fill="#02684f" stroke="#02684f"></path><path d="M819 0L745 0L754 18Z" fill="#007f5f" stroke="#007f5f"></path><path d="M754 18L745 0L681 0Z" fill="#001812" stroke="#001812"></path><path d="M168 489L220 540L222 459Z" fill="#02684f" stroke="#02684f"></path><path d="M78 173L103 254L169 170Z" fill="#017457" stroke="#017457"></path><path d="M835 414L816 334L760 396Z" fill="#072a21" stroke="#072a21"></path><path d="M804 459L835 414L760 396Z" fill="#017457" stroke="#017457"></path><path d="M103 254L101 301L157 267Z" fill="#072a21" stroke="#072a21"></path><path d="M107 540L168 489L151 441Z" fill="#06201a" stroke="#06201a"></path><path d="M151 441L168 489L222 459Z" fill="#072a21" stroke="#072a21"></path><path d="M859 144L805 137L798 200Z" fill="#055340" stroke="#055340"></path><path d="M791 58L819 0L754 18Z" fill="#064838" stroke="#064838"></path><path d="M859 144L798 200L867 147Z" fill="#045d48" stroke="#045d48"></path><path d="M867 147L798 200L910 237Z" fill="#073429" stroke="#073429"></path><path d="M110 88L144 107L100 55Z" fill="#017457" stroke="#017457"></path><path d="M144 107L115 111L169 170Z" fill="#072a21" stroke="#072a21"></path><path d="M57 328L85 322L41 320Z" fill="#072a21" stroke="#072a21"></path><path d="M101 301L85 322L203 322Z" fill="#017457" stroke="#017457"></path><path d="M85 322L101 301L41 320Z" fill="#001812" stroke="#001812"></path><path d="M910 237L798 200L836 270Z" fill="#073429" stroke="#073429"></path><path d="M859 144L867 147L835 96Z" fill="#02684f" stroke="#02684f"></path><path d="M881 399L885 340L852 362Z" fill="#045d48" stroke="#045d48"></path><path d="M852 362L885 340L816 334Z" fill="#073429" stroke="#073429"></path><path d="M804 459L858 462L835 414Z" fill="#06201a" stroke="#06201a"></path><path d="M835 414L881 399L852 362Z" fill="#02684f" stroke="#02684f"></path><path d="M820 515L804 459L742 496Z" fill="#007f5f" stroke="#007f5f"></path><path d="M100 55L144 107L207 46Z" fill="#007f5f" stroke="#007f5f"></path><path d="M115 111L78 173L169 170Z" fill="#064838" stroke="#064838"></path><path d="M72 102L78 173L115 111Z" fill="#017457" stroke="#017457"></path><path d="M252 0L163 0L207 46Z" fill="#045d48" stroke="#045d48"></path><path d="M816 540L820 515L742 496Z" fill="#007f5f" stroke="#007f5f"></path><path d="M858 462L881 399L835 414Z" fill="#007f5f" stroke="#007f5f"></path><path d="M858 462L804 459L829 490Z" fill="#055340" stroke="#055340"></path><path d="M895 497L858 462L829 490Z" fill="#064838" stroke="#064838"></path><path d="M885 340L910 237L836 270Z" fill="#045d48" stroke="#045d48"></path><path d="M928 222L910 237L960 222Z" fill="#06201a" stroke="#06201a"></path><path d="M53 250L101 301L103 254Z" fill="#02684f" stroke="#02684f"></path><path d="M85 322L29 446L156 432Z" fill="#045d48" stroke="#045d48"></path><path d="M78 173L53 250L103 254Z" fill="#055340" stroke="#055340"></path><path d="M738 540L816 540L742 496Z" fill="#02684f" stroke="#02684f"></path><path d="M820 515L862 540L829 490Z" fill="#072a21" stroke="#072a21"></path><path d="M886 0L819 0L835 96Z" fill="#045d48" stroke="#045d48"></path><path d="M835 96L819 0L791 58Z" fill="#072a21" stroke="#072a21"></path><path d="M886 0L835 96L928 35Z" fill="#02684f" stroke="#02684f"></path><path d="M163 0L145 0L207 46Z" fill="#02684f" stroke="#02684f"></path><path d="M145 0L100 55L207 46Z" fill="#064838" stroke="#064838"></path><path d="M110 88L72 102L115 111Z" fill="#06201a" stroke="#06201a"></path><path d="M78 173L0 198L53 250Z" fill="#06201a" stroke="#06201a"></path><path d="M100 55L72 102L110 88Z" fill="#072a21" stroke="#072a21"></path><path d="M53 250L41 320L101 301Z" fill="#02684f" stroke="#02684f"></path><path d="M86 540L107 540L151 441Z" fill="#001812" stroke="#001812"></path><path d="M0 317L41 320L53 250Z" fill="#055340" stroke="#055340"></path><path d="M960 302L910 237L885 340Z" fill="#017457" stroke="#017457"></path><path d="M910 237L928 222L867 147Z" fill="#007f5f" stroke="#007f5f"></path><path d="M86 540L151 441L29 446Z" fill="#007f5f" stroke="#007f5f"></path><path d="M168 489L107 540L220 540Z" fill="#017457" stroke="#017457"></path><path d="M816 540L862 540L820 515Z" fill="#064838" stroke="#064838"></path><path d="M858 462L960 454L881 399Z" fill="#045d48" stroke="#045d48"></path><path d="M960 316L960 302L885 340Z" fill="#017457" stroke="#017457"></path><path d="M0 145L31 144L0 110Z" fill="#073e30" stroke="#073e30"></path><path d="M72 102L31 144L78 173Z" fill="#02684f" stroke="#02684f"></path><path d="M862 540L895 497L829 490Z" fill="#073429" stroke="#073429"></path><path d="M960 316L885 340L881 399Z" fill="#02684f" stroke="#02684f"></path><path d="M960 302L960 222L910 237Z" fill="#072a21" stroke="#072a21"></path><path d="M928 222L960 196L867 147Z" fill="#072a21" stroke="#072a21"></path><path d="M960 454L960 316L881 399Z" fill="#001812" stroke="#001812"></path><path d="M29 446L85 322L57 328Z" fill="#017457" stroke="#017457"></path><path d="M960 222L960 196L928 222Z" fill="#055340" stroke="#055340"></path><path d="M862 540L883 540L895 497Z" fill="#045d48" stroke="#045d48"></path><path d="M895 497L960 454L858 462Z" fill="#02684f" stroke="#02684f"></path><path d="M938 79L835 96L867 147Z" fill="#072a21" stroke="#072a21"></path><path d="M0 198L0 317L53 250Z" fill="#073e30" stroke="#073e30"></path><path d="M41 320L0 326L57 328Z" fill="#072a21" stroke="#072a21"></path><path d="M0 317L0 326L41 320Z" fill="#017457" stroke="#017457"></path><path d="M0 326L29 446L57 328Z" fill="#055340" stroke="#055340"></path><path d="M31 144L0 198L78 173Z" fill="#06201a" stroke="#06201a"></path><path d="M960 128L938 79L867 147Z" fill="#073429" stroke="#073429"></path><path d="M960 196L960 128L867 147Z" fill="#045d48" stroke="#045d48"></path><path d="M0 110L31 144L72 102Z" fill="#064838" stroke="#064838"></path><path d="M31 144L0 145L0 198Z" fill="#045d48" stroke="#045d48"></path><path d="M0 110L72 102L0 100Z" fill="#017457" stroke="#017457"></path><path d="M960 75L928 35L938 79Z" fill="#007f5f" stroke="#007f5f"></path><path d="M938 79L928 35L835 96Z" fill="#007f5f" stroke="#007f5f"></path><path d="M0 100L72 102L33 0Z" fill="#073e30" stroke="#073e30"></path><path d="M33 0L72 102L100 55Z" fill="#045d48" stroke="#045d48"></path><path d="M29 446L39 523L86 540Z" fill="#06201a" stroke="#06201a"></path><path d="M0 495L39 523L29 446Z" fill="#073429" stroke="#073429"></path><path d="M960 461L960 454L895 497Z" fill="#017457" stroke="#017457"></path><path d="M960 540L960 461L895 497Z" fill="#045d48" stroke="#045d48"></path><path d="M960 128L960 75L938 79Z" fill="#06201a" stroke="#06201a"></path><path d="M0 326L0 460L29 446Z" fill="#007f5f" stroke="#007f5f"></path><path d="M145 0L33 0L100 55Z" fill="#073429" stroke="#073429"></path><path d="M0 460L0 495L29 446Z" fill="#055340" stroke="#055340"></path><path d="M960 75L960 0L928 35Z" fill="#017457" stroke="#017457"></path><path d="M928 35L960 0L886 0Z" fill="#055340" stroke="#055340"></path><path d="M883 540L960 540L895 497Z" fill="#045d48" stroke="#045d48"></path><path d="M33 0L0 0L0 100Z" fill="#007f5f" stroke="#007f5f"></path><path d="M0 495L0 540L39 523Z" fill="#045d48" stroke="#045d48"></path><path d="M39 523L0 540L86 540Z" fill="#06201a" stroke="#06201a"></path></g></svg>